<?xml version="1.0" encoding="iso-8859-1"?>
<!-- Generator: Adobe Illustrator 22.1.0, SVG Export Plug-In . SVG Version: 6.00 Build 0)  -->
<svg xmlns="http://www.w3.org/2000/svg" xmlns:xlink="http://www.w3.org/1999/xlink" version="1.1" id="two_x5F_tone" x="0px" y="0px" viewBox="0 0 24 24" style="enable-background:new 0 0 24 24;" xml:space="preserve" width="24px" height="24px">
<g style="opacity:0.3;">
	<circle cx="8" cy="15.5" r="4"/>
</g>
<path d="M8,20.5c2.761,0,5-2.239,5-5s-2.239-5-5-5s-5,2.239-5,5S5.239,20.5,8,20.5z M8,12.5c1.657,0,3,1.343,3,3  c0,1.657-1.343,3-3,3s-3-1.343-3-3C5,13.843,6.343,12.5,8,12.5z M8,14.5c0.552,0,1,0.448,1,1c0,0.552-0.448,1-1,1s-1-0.448-1-1  C7,14.948,7.448,14.5,8,14.5z"/>
<path d="M6.606,20h2.788l-0.206,1.776C9.173,21.904,9.065,22,8.936,22H7.064c-0.129,0-0.237-0.096-0.252-0.224L6.606,20z"/>
<path d="M15.606,10h2.788l-0.206,1.776C18.173,11.904,18.065,12,17.936,12h-1.872c-0.129,0-0.237-0.096-0.252-0.224L15.606,10z"/>
<path d="M18.394,4h-2.788l0.206-1.776C15.827,2.096,15.935,2,16.064,2h1.872c0.129,0,0.237,0.096,0.252,0.224L18.394,4z"/>
<path d="M20.295,6.707l-1.394-2.415l1.641-0.709c0.118-0.051,0.256-0.006,0.32,0.106l0.936,1.621  c0.064,0.112,0.035,0.254-0.068,0.33L20.295,6.707z"/>
<path d="M13.705,7.293l1.394,2.415l-1.641,0.709c-0.118,0.051-0.256,0.006-0.32-0.106l-0.936-1.621  c-0.064-0.112-0.035-0.254,0.068-0.33L13.705,7.293z"/>
<path d="M15.099,4.293l-1.394,2.415L12.27,5.641c-0.103-0.077-0.133-0.219-0.068-0.33l0.936-1.621  c0.064-0.112,0.202-0.157,0.32-0.106L15.099,4.293z"/>
<path d="M18.901,9.707l1.394-2.415l1.435,1.066c0.103,0.077,0.133,0.219,0.068,0.33l-0.936,1.621  c-0.064,0.112-0.202,0.157-0.32,0.106L18.901,9.707z"/>
<path d="M9.394,11H6.606l0.206-1.776C6.827,9.096,6.935,9,7.064,9h1.872c0.129,0,0.237,0.096,0.252,0.224L9.394,11z"/>
<path d="M12.594,14.457L11.2,12.043l1.641-0.709c0.118-0.051,0.256-0.006,0.32,0.106l0.936,1.621  c0.064,0.112,0.035,0.254-0.068,0.33L12.594,14.457z"/>
<path d="M3.406,16.543L4.8,18.957l-1.641,0.709c-0.118,0.051-0.256,0.006-0.32-0.106l-0.936-1.621  c-0.064-0.112-0.035-0.254,0.068-0.33L3.406,16.543z"/>
<path d="M4.8,12.043l-1.394,2.415l-1.435-1.066c-0.103-0.077-0.133-0.219-0.068-0.33l0.936-1.621  c0.064-0.112,0.202-0.157,0.32-0.106L4.8,12.043z"/>
<path d="M11.2,18.957l1.394-2.415l1.435,1.066c0.103,0.077,0.133,0.219,0.068,0.33l-0.936,1.621  c-0.064,0.112-0.202,0.157-0.32,0.106L11.2,18.957z"/>
<path d="M17,11c2.209,0,4-1.791,4-4c0-2.209-1.791-4-4-4s-4,1.791-4,4C13,9.209,14.791,11,17,11z M17,5c1.105,0,2,0.895,2,2  c0,1.105-0.895,2-2,2s-2-0.895-2-2C15,5.895,15.895,5,17,5z"/>
</svg>
